<?xml version="1.0" standalone="no"?>
<!DOCTYPE svg PUBLIC "-//W3C//DTD SVG 20010904//EN"
 "http://www.w3.org/TR/2001/REC-SVG-20010904/DTD/svg10.dtd">
<svg version="1.0" xmlns="http://www.w3.org/2000/svg"
 width="1024.000000pt" height="1024.000000pt" viewBox="0 0 1024.000000 1024.000000"
 preserveAspectRatio="xMidYMid meet">
<metadata>
Created by potrace 1.14, written by Peter Selinger 2001-2017
</metadata>
<g transform="translate(0.000000,1024.000000) scale(0.100000,-0.100000)"
fill="#000000" stroke="none">
<path d="M4674 10119 c0 -16 4 -29 10 -29 6 0 6 -4 -1 -11 -8 -8 -8 -20 -3
-35 6 -14 6 -26 0 -29 -11 -7 -9 -45 3 -45 4 0 5 -5 1 -12 -11 -18 -12 -68 -2
-68 5 0 6 -5 2 -11 -10 -17 -13 -88 -4 -94 4 -2 5 -17 3 -32 -9 -61 -9 -103
-1 -103 5 0 6 -5 2 -11 -10 -17 -13 -88 -4 -94 4 -2 5 -17 3 -32 -8 -59 -10
-124 -3 -128 4 -2 5 -17 3 -32 -10 -65 -9 -103 1 -103 7 0 7 -3 1 -8 -13 -9
-14 -65 0 -74 6 -5 6 -8 0 -8 -5 0 -10 -16 -10 -35 0 -19 3 -35 8 -35 4 0 5
-5 1 -11 -10 -17 -13 -88 -4 -94 4 -2 5 -17 3 -32 -9 -61 -9 -103 -1 -103 5 0
6 -5 2 -12 -12 -19 -12 -68 0 -68 7 0 8 -3 1 -8 -13 -9 -14 -65 0 -74 6 -5 6
-8 0 -8 -10 0 -14 -78 -4 -95 3 -5 4 -21 2 -35 -8 -65 -10 -121 -3 -125 4 -2
5 -17 3 -32 -9 -61 -9 -103 -1 -103 5 0 6 -5 2 -11 -10 -17 -13 -88 -4 -94 4
-2 5 -17 3 -32 -9 -61 -9 -103 -1 -103 5 0 6 -5 2 -12 -11 -18 -12 -68 -2 -68
5 0 6 -5 2 -11 -10 -17 -13 -88 -4 -94 4 -2 5 -17 3 -32 -9 -61 -9 -103 -1
-103 5 0 6 -5 2 -11 -10 -17 -13 -88 -4 -94 4 -2 5 -17 3 -32 -8 -59 -10 -124
-3 -128 4 -2 5 -17 3 -32 -10 -65 -9 -103 1 -103 7 0 7 -3 1 -8 -13 -9 -14
-65 0 -74 6 -5 6 -8 0 -8 -5 0 -10 -16 -10 -35 0 -19 3 -35 8 -35 4 0 5 -5 1
-11 -10 -17 -13 -88 -4 -94 4 -2 5 -17 3 -32 -9 -61 -9 -103 -1 -103 5 0 6 -5
2 -12 -12 -19 -12 -68 0 -68 7 0 8 -3 1 -8 -13 -9 -14 -65 0 -74 6 -5 6 -8 0
-8 -11 0 -14 -84 -3 -95 4 -4 4 -15 0 -24 -4 -9 -7 -23 -6 -31 1 -8 2 -20 3
-25 0 -6 10 -11 20 -11 11 0 17 4 15 8 -3 4 2 8 10 8 9 0 16 5 16 10 0 6 9 10
20 10 11 0 23 7 26 15 4 8 10 12 15 9 5 -3 9 0 9 5 0 6 7 11 15 11 8 0 24 9
35 20 12 12 25 18 30 15 6 -4 13 0 16 9 3 8 12 12 20 9 8 -3 14 0 14 7 0 6 5
8 10 5 6 -3 10 -1 10 4 0 6 7 11 15 11 8 0 15 5 15 10 0 6 6 10 13 10 7 0 19
9 27 20 10 14 16 16 22 7 6 -9 8 -9 8 1 0 7 5 10 10 7 6 -3 13 1 16 9 4 10 18
16 36 16 17 0 27 -4 23 -10 -3 -5 1 -10 9 -10 9 0 16 -5 16 -11 0 -5 4 -8 9
-4 5 3 16 -2 24 -10 12 -11 17 -12 20 -2 4 9 6 9 6 -1 1 -11 33 -52 35 -45 3
7 46 -11 46 -19 0 -5 4 -7 9 -3 5 3 16 -1 24 -9 8 -8 17 -12 21 -9 3 4 6 -1 6
-11 0 -9 4 -15 9 -12 5 3 20 -3 33 -14 14 -10 31 -20 38 -22 8 -2 23 -12 34
-24 21 -21 46 -22 46 -3 0 6 -5 7 -12 3 -7 -4 -8 -3 -4 4 4 7 15 12 24 12 13
0 13 2 -4 15 -10 8 -14 15 -9 15 13 0 13 83 0 92 -6 5 -5 8 3 8 6 0 12 9 12
21 0 13 -4 18 -12 13 -8 -5 -7 0 2 11 9 11 10 16 3 11 -7 -4 -13 -2 -13 3 0 6
8 11 18 11 12 0 13 3 5 8 -17 11 -23 114 -6 108 7 -3 10 1 7 9 -3 8 -13 11
-22 9 -12 -4 -11 -2 3 7 19 12 19 12 0 20 -17 7 -18 8 -2 8 10 1 17 9 17 22 0
11 -4 18 -8 15 -4 -2 -8 4 -8 15 0 10 7 19 16 19 10 0 11 3 4 8 -14 9 -21 53
-11 69 4 6 2 15 -4 19 -8 5 -9 3 -4 -6 5 -9 4 -11 -4 -6 -6 4 -9 12 -5 17 3 5
10 7 15 4 12 -8 11 2 -1 26 -8 13 -7 19 0 19 7 0 7 7 -1 21 -6 13 -7 19 -1 15
18 -11 20 18 3 44 -10 14 -11 21 -3 17 6 -5 12 -4 12 2 0 5 -6 12 -12 14 -10
4 -10 6 0 6 7 1 10 6 7 12 -4 5 -8 21 -10 35 -2 19 1 24 13 19 12 -4 12 -3 3
8 -12 15 -18 108 -7 125 3 6 0 13 -6 15 -10 4 -10 6 0 6 6 1 12 10 12 22 0 13
-4 18 -12 13 -8 -5 -7 0 2 11 9 11 10 16 3 11 -7 -4 -13 -2 -13 3 0 6 8 11 18
11 12 0 13 3 5 8 -17 11 -23 114 -6 108 7 -3 10 1 7 9 -3 8 -13 11 -22 9 -12
-4 -11 -2 3 7 19 12 19 12 0 20 -17 7 -18 8 -2 8 10 1 17 9 17 22 0 11 -3 18
-7 16 -5 -3 -8 8 -8 24 0 21 4 28 14 24 10 -4 11 -2 3 8 -6 7 -12 41 -14 75
-3 50 -1 62 12 62 10 0 11 3 4 8 -14 9 -21 53 -11 69 4 6 2 15 -4 19 -8 5 -9
3 -4 -6 5 -9 4 -11 -4 -6 -6 4 -9 12 -5 17 3 5 10 7 15 4 12 -8 11 2 -1 26 -8
13 -7 19 0 19 7 0 7 7 -1 21 -6 13 -7 19 -1 15 18 -11 20 18 3 44 -10 14 -11
21 -3 17 6 -5 12 -4 12 2 0 5 -6 12 -12 14 -10 4 -10 6 0 6 10 1 10 6 2 21 -8
15 -8 20 2 20 9 0 9 3 -2 10 -10 6 -11 10 -2 10 6 0 12 9 12 21 0 13 -4 18
-12 13 -8 -5 -7 0 2 11 9 11 10 16 3 11 -7 -4 -13 -2 -13 3 0 6 8 11 18 11 12
0 13 3 5 8 -17 11 -23 114 -6 108 7 -3 10 1 7 9 -3 8 -13 11 -22 9 -12 -4 -11
-2 3 7 19 12 19 12 0 20 -17 7 -18 8 -2 8 10 1 17 9 17 22 0 12 -4 17 -11 13
-8 -5 -8 -1 0 14 8 15 8 22 -2 25 -9 4 -9 6 1 6 6 1 12 10 12 22 0 13 -4 18
-12 13 -8 -5 -7 0 2 11 9 11 10 16 3 11 -7 -4 -13 -2 -13 3 0 6 8 11 18 11 12
0 13 3 5 8 -17 11 -23 114 -6 108 7 -3 10 1 7 9 -3 8 -13 11 -22 9 -12 -4 -11
-2 3 7 19 12 19 12 0 20 -17 7 -18 8 -2 8 10 1 17 9 17 22 0 11 -4 18 -8 15
-4 -2 -8 4 -8 15 0 10 7 19 16 19 10 0 11 3 4 8 -14 9 -21 53 -11 69 4 6 2 15
-4 19 -8 5 -9 3 -4 -6 5 -9 4 -11 -4 -6 -6 4 -9 12 -5 17 3 5 10 7 15 4 12 -8
11 2 -1 26 -8 13 -7 19 0 19 7 0 7 7 -1 21 -6 13 -7 19 -1 15 18 -11 20 18 3
44 -10 14 -11 21 -3 17 6 -5 12 -4 12 2 0 5 -6 12 -12 14 -10 4 -10 6 0 6 7 1
10 6 7 12 -4 5 -8 21 -10 35 -2 19 1 24 13 19 12 -4 12 -3 3 8 -12 15 -18 108
-7 125 3 6 -2 13 -11 15 -17 4 -17 5 0 6 19 1 24 31 5 31 -10 0 -9 3 1 9 8 5
11 16 6 30 -3 12 -11 19 -16 16 -5 -4 -9 0 -9 8 0 8 -13 20 -30 27 -16 7 -30
16 -30 21 0 5 -10 9 -22 9 -12 0 -19 3 -15 6 8 8 -18 34 -33 34 -6 0 -8 5 -4
12 4 6 3 8 -4 4 -6 -3 -17 1 -25 9 -9 8 -18 15 -21 15 -4 0 -20 14 -38 30 -17
17 -35 30 -40 30 -9 0 -24 11 -61 45 -12 11 -28 18 -36 17 -9 -2 -12 2 -7 13
3 9 2 14 -2 11 -10 -6 -83 39 -75 47 3 4 -3 7 -14 7 -12 0 -24 7 -27 16 -3 8
-11 12 -17 9 -6 -4 -13 2 -16 14 -3 12 -13 21 -24 21 -11 0 -19 5 -19 10 0 6
-7 10 -15 10 -8 0 -19 9 -25 20 -6 11 -15 20 -21 20 -6 0 -16 6 -24 13 -27 26
-55 47 -55 41 0 -3 -19 10 -41 30 -23 19 -46 33 -50 30 -5 -3 -9 -1 -9 4 0 5
-8 12 -18 14 -15 4 -18 -1 -18 -23z"/>
<path d="M6145 9070 c-19 -7 -19 -7 0 -18 13 -7 15 -11 6 -12 -8 0 -11 -3 -8
-6 3 -4 1 -16 -5 -28 -10 -20 -10 -20 7 -6 17 14 17 13 8 -5 -6 -11 -8 -26 -5
-34 3 -9 0 -11 -8 -6 -10 6 -11 4 -4 -6 13 -21 14 -42 3 -55 -7 -8 -6 -15 2
-20 8 -5 9 -3 4 6 -6 9 -4 11 5 5 10 -6 10 -10 -3 -20 -14 -10 -14 -12 1 -23
9 -7 12 -10 6 -7 -7 2 -15 -2 -18 -11 -3 -8 -2 -12 3 -9 6 3 10 -12 9 -35 0
-25 -4 -37 -11 -33 -6 4 -7 1 -1 -8 14 -23 16 -59 2 -59 -6 0 -3 -7 8 -16 10
-8 13 -13 7 -9 -8 4 -13 0 -13 -10 0 -10 5 -14 13 -10 6 4 4 0 -5 -7 -15 -13
-15 -15 0 -26 9 -7 12 -10 6 -7 -7 2 -15 -2 -18 -11 -3 -8 -2 -12 3 -9 6 3 10
-12 9 -35 0 -25 -4 -37 -11 -33 -6 4 -7 1 -1 -8 14 -23 16 -59 2 -59 -6 0 -3
-7 8 -16 10 -8 13 -13 7 -9 -8 4 -13 0 -13 -10 0 -10 5 -14 13 -10 6 4 4 0 -5
-7 -15 -13 -15 -15 0 -26 9 -7 12 -10 6 -7 -7 2 -15 -2 -18 -11 -3 -8 -2 -12
4 -9 6 3 10 2 10 -4 0 -5 -5 -13 -10 -16 -7 -4 -8 -11 -2 -18 13 -16 12 -69
-2 -86 -8 -11 -8 -13 0 -8 7 4 15 0 18 -9 3 -8 2 -12 -3 -9 -5 3 -12 1 -16 -5
-3 -5 -1 -10 6 -10 9 0 9 -3 0 -14 -8 -9 -8 -16 -2 -20 13 -8 11 -67 -3 -85
-8 -11 -8 -13 0 -8 7 4 15 0 18 -9 3 -8 2 -12 -3 -9 -5 3 -12 1 -16 -5 -3 -5
-1 -10 4 -10 6 0 11 -5 11 -11 0 -5 -5 -7 -12 -3 -7 5 -8 3 -2 -7 13 -21 14
-42 3 -55 -7 -8 -6 -15 2 -20 8 -5 9 -3 4 6 -6 9 -4 11 5 5 10 -6 10 -10 -3
-20 -14 -10 -14 -12 1 -23 9 -7 12 -10 6 -7 -7 2 -15 -2 -18 -11 -3 -8 -2 -12
3 -9 6 3 10 -12 9 -35 0 -25 -4 -37 -11 -33 -6 4 -7 1 -1 -8 14 -23 16 -59 2
-59 -6 0 -3 -7 8 -16 10 -8 13 -13 7 -9 -8 4 -13 0 -13 -10 0 -10 5 -14 13
-10 6 4 4 0 -5 -7 -15 -13 -15 -15 0 -26 9 -7 12 -10 6 -7 -7 2 -15 -2 -18
-11 -3 -8 -2 -12 3 -9 6 3 10 -12 9 -35 0 -25 -4 -37 -11 -33 -6 4 -7 1 -1 -8
14 -23 16 -59 2 -59 -6 0 -3 -7 8 -16 10 -8 13 -13 7 -9 -8 4 -13 0 -13 -10 0
-10 5 -14 13 -10 6 4 4 0 -5 -7 -15 -13 -15 -15 0 -26 9 -7 12 -10 6 -7 -7 2
-15 -2 -18 -11 -3 -8 -2 -12 4 -9 6 3 10 2 10 -4 0 -5 -5 -13 -10 -16 -7 -4
-8 -11 -2 -18 13 -16 12 -69 -2 -86 -8 -11 -8 -13 0 -8 7 4 15 0 18 -9 3 -8 2
-12 -3 -9 -5 3 -12 1 -16 -5 -3 -5 -1 -10 6 -10 9 0 9 -3 0 -14 -8 -9 -8 -16
-2 -20 13 -8 11 -67 -3 -85 -8 -11 -8 -13 0 -8 7 4 15 0 18 -9 3 -8 2 -12 -3
-9 -5 3 -12 1 -16 -5 -3 -5 -1 -10 4 -10 6 0 11 -5 11 -11 0 -5 -5 -7 -12 -3
-7 5 -8 3 -2 -7 13 -21 14 -42 3 -55 -7 -8 -6 -15 2 -20 8 -5 9 -3 4 6 -6 9
-4 11 5 5 10 -6 10 -10 -3 -20 -14 -10 -14 -12 1 -23 9 -7 12 -10 6 -7 -7 2
-15 -2 -18 -11 -3 -8 -2 -12 3 -9 6 3 10 -12 9 -35 0 -25 -4 -37 -11 -33 -6 4
-7 1 -1 -8 14 -23 16 -59 2 -59 -6 0 -3 -7 8 -16 10 -8 13 -13 7 -9 -8 4 -13
0 -13 -10 0 -10 5 -14 13 -10 6 4 4 0 -5 -7 -15 -13 -15 -15 0 -26 9 -7 12
-10 6 -7 -7 2 -15 -2 -18 -11 -3 -8 -2 -12 3 -9 6 3 10 -12 9 -35 0 -25 -4
-37 -11 -33 -6 4 -7 1 -1 -8 14 -23 16 -59 2 -59 -6 0 -3 -7 8 -16 10 -8 13
-13 7 -9 -8 4 -13 0 -13 -10 0 -10 5 -14 13 -10 6 4 4 0 -5 -7 -15 -13 -15
-15 0 -26 9 -7 12 -10 6 -7 -7 2 -15 -2 -18 -11 -3 -9 -2 -12 4 -9 12 7 7 -36
-6 -57 -5 -8 0 -7 11 2 17 14 18 14 6 -7 -6 -13 -9 -23 -5 -23 3 0 1 -7 -6
-16 -8 -8 -9 -14 -4 -13 21 4 24 -2 9 -17 -15 -15 -15 -18 0 -34 15 -17 15
-19 -2 -29 -10 -6 -12 -11 -5 -11 6 0 12 -9 12 -20 0 -15 7 -20 25 -20 14 0
28 -7 31 -15 4 -8 15 -15 25 -15 10 0 19 -5 19 -12 0 -6 3 -8 6 -5 4 4 15 -3
25 -15 13 -14 19 -16 19 -7 0 11 2 11 10 -1 5 -8 10 -10 10 -5 0 6 6 3 13 -6
7 -9 22 -19 35 -23 12 -4 20 -12 17 -17 -3 -5 1 -6 9 -3 10 4 16 1 16 -9 0
-10 8 -14 25 -13 13 2 23 0 21 -3 -4 -6 20 -32 29 -31 21 1 25 -1 20 -10 -4
-6 5 -10 19 -10 16 0 26 -6 26 -14 0 -9 7 -13 20 -11 13 2 20 -2 20 -11 0 -8
5 -12 10 -9 6 3 10 1 10 -5 0 -6 5 -8 10 -5 6 3 10 2 10 -4 0 -10 38 -27 53
-23 4 1 6 -3 5 -9 -2 -6 5 -13 15 -14 10 -2 27 -11 38 -21 10 -9 19 -14 19 -9
0 4 7 2 15 -5 8 -7 13 -15 11 -19 -3 -4 8 -7 22 -6 16 0 26 -5 25 -12 -2 -7 6
-10 17 -8 12 2 18 0 15 -6 -4 -5 1 -9 9 -9 9 0 16 -7 16 -15 0 -8 5 -15 11
-15 5 0 7 5 3 12 -4 6 13 -3 38 -20 43 -30 46 -30 51 -12 3 11 1 23 -4 26 -5
3 -5 13 -1 22 5 9 7 50 6 90 -1 49 1 70 8 65 7 -4 8 -1 2 8 -13 20 -14 240 -1
232 6 -4 7 -1 1 8 -12 19 -13 1120 -1 1112 6 -4 7 -1 1 8 -13 20 -14 240 -1
232 6 -4 7 -1 1 8 -13 20 -14 240 -1 232 6 -4 7 -1 1 8 -13 20 -14 240 -1 232
6 -4 7 -1 1 8 -13 20 -14 240 -1 232 6 -4 7 -1 1 8 -5 8 -9 62 -10 121 0 99
-2 109 -24 128 -12 11 -27 17 -33 13 -6 -3 -7 -1 -3 5 6 11 1 14 -21 11 -4 0
-11 9 -15 21 -4 12 -12 19 -17 16 -5 -3 -11 1 -15 9 -3 8 -12 15 -21 15 -8 0
-15 8 -16 18 0 9 -3 12 -6 5 -3 -8 -12 -4 -27 12 -13 14 -31 25 -41 25 -11 0
-15 5 -12 14 4 9 1 13 -6 10 -7 -2 -27 10 -44 26 -18 17 -33 27 -33 23 0 -4
-5 0 -11 10 -6 9 -14 15 -20 12 -5 -4 -12 1 -15 9 -3 9 -15 16 -26 16 -10 0
-16 5 -13 10 3 6 1 10 -5 10 -6 0 -18 6 -25 13 -34 30 -43 35 -49 30 -3 -4 -6
-1 -6 5 0 7 -7 12 -16 12 -8 0 -12 5 -9 10 3 6 -3 10 -14 10 -12 0 -21 7 -21
16 0 8 -4 12 -10 9 -5 -3 -10 1 -10 9 0 9 -3 16 -7 15 -18 -3 -52 14 -47 22 3
5 -2 9 -10 9 -8 0 -21 9 -29 21 -8 11 -24 21 -35 22 -11 0 -18 5 -16 9 3 4 -6
12 -20 18 -14 5 -26 14 -26 20 0 5 -7 10 -15 10 -8 0 -15 5 -15 11 0 5 -4 8
-9 5 -5 -4 -11 -2 -13 3 -1 4 -12 5 -23 1z"/>
<path d="M3245 9020 c3 -5 0 -7 -9 -4 -12 5 -14 -4 -11 -55 2 -33 0 -63 -6
-66 -5 -4 -6 -12 -2 -18 11 -18 13 -96 2 -103 -5 -3 -6 -11 -2 -17 11 -18 13
-96 2 -103 -5 -3 -6 -11 -2 -17 11 -18 13 -96 2 -103 -5 -3 -6 -11 -2 -17 11
-18 13 -96 2 -103 -5 -3 -6 -11 -2 -17 11 -18 13 -96 2 -103 -5 -3 -6 -11 -2
-17 11 -18 13 -96 2 -103 -5 -3 -6 -11 -2 -17 11 -18 13 -96 2 -103 -5 -3 -6
-11 -2 -17 11 -18 13 -96 2 -103 -5 -3 -6 -11 -2 -17 11 -18 13 -96 2 -103 -5
-3 -6 -11 -2 -17 11 -18 13 -96 2 -103 -5 -3 -6 -11 -2 -17 11 -18 13 -96 2
-103 -5 -3 -6 -11 -2 -17 11 -18 13 -96 2 -103 -5 -3 -6 -11 -2 -17 11 -18 13
-96 2 -103 -5 -3 -6 -11 -2 -17 11 -18 13 -96 2 -103 -5 -3 -6 -11 -2 -17 11
-18 13 -96 2 -103 -5 -3 -6 -11 -2 -17 11 -17 12 -137 1 -143 -4 -3 -5 -11 -1
-17 11 -18 13 -96 2 -103 -5 -3 -6 -11 -2 -17 11 -18 13 -96 2 -103 -5 -3 -6
-11 -2 -17 11 -18 13 -96 2 -103 -5 -3 -6 -11 -2 -17 11 -18 12 -90 1 -104 -5
-6 -5 -13 -1 -16 5 -3 8 -159 8 -347 0 -306 5 -393 22 -352 2 6 9 9 14 6 6 -3
16 0 24 6 8 6 19 9 24 6 5 -4 13 -1 17 5 5 8 2 10 -7 4 -8 -4 0 4 16 19 27 23
46 30 67 27 4 0 10 8 13 19 4 11 11 18 16 14 6 -3 19 2 29 11 10 9 23 14 28
11 12 -7 34 18 25 28 -4 4 0 4 8 1 9 -3 27 5 43 20 15 14 31 23 36 20 5 -3 18
3 30 15 11 11 27 20 35 20 7 0 19 8 24 18 6 9 11 13 11 7 0 -5 4 -5 8 2 4 6
14 13 21 15 8 2 22 11 32 20 11 10 26 15 35 11 11 -4 15 -2 10 5 -3 6 3 13 14
17 11 3 20 10 20 14 0 5 14 11 31 15 17 3 28 9 25 14 -2 4 5 9 16 9 11 1 26
10 32 19 7 9 18 14 24 10 6 -3 17 3 25 14 7 11 17 17 21 12 4 -4 14 2 22 12 8
11 14 16 14 10 0 -5 10 3 23 18 20 23 23 34 17 77 -4 32 -2 52 4 55 6 3 5 5
-2 5 -7 1 -10 6 -6 12 8 14 11 109 3 109 -10 0 -5 34 6 43 6 4 5 10 -4 16 -9
6 -10 10 -2 16 9 5 9 10 1 20 -8 10 -7 14 2 18 11 4 10 6 0 6 -8 1 -10 6 -6
13 12 19 12 48 0 48 -7 0 -7 3 -1 8 6 4 10 30 10 57 0 28 -4 53 -10 57 -6 5
-6 8 1 8 10 0 10 52 0 102 -2 9 1 19 8 22 7 3 7 5 -2 5 -8 1 -10 6 -6 13 12
19 12 48 0 48 -7 0 -7 3 -1 8 11 8 14 132 4 132 -10 0 -5 34 6 43 6 4 5 10 -4
16 -9 6 -10 10 -2 16 9 5 9 10 1 20 -8 10 -7 14 2 18 11 4 10 6 0 6 -8 1 -10
6 -6 13 12 19 12 48 0 48 -7 0 -7 3 -1 8 6 4 10 30 10 57 0 28 -4 53 -10 57
-6 5 -6 8 1 8 10 0 10 52 0 102 -2 9 1 19 8 22 7 3 7 5 -2 5 -8 1 -10 6 -5 14
11 17 10 41 -2 49 -7 5 -7 8 0 8 9 0 10 104 1 142 -2 9 1 19 8 22 7 3 7 5 -2
5 -8 1 -10 6 -5 14 11 17 10 41 -2 49 -7 5 -7 8 0 8 10 0 10 92 1 117 -3 7 0
13 6 13 7 0 7 4 -1 14 -9 11 -9 15 1 19 11 4 10 6 0 6 -8 1 -10 6 -5 14 11 17
10 41 -2 49 -7 5 -7 8 0 8 10 0 10 92 1 117 -3 7 0 13 6 13 7 0 6 5 -2 15 -10
12 -10 15 1 15 12 0 12 2 0 9 -7 5 -9 11 -4 14 10 6 9 70 -2 86 -3 6 -2 11 3
11 6 0 8 9 5 20 -3 11 -9 20 -13 20 -4 0 -10 10 -13 22 -4 12 -9 19 -13 15 -4
-3 -20 5 -36 18 -16 14 -35 22 -40 19 -7 -4 -8 -2 -4 4 6 11 -5 16 -26 13 -4
0 -5 6 -1 15 3 8 2 14 -3 13 -16 -4 -44 13 -38 22 3 5 2 9 -3 8 -22 -4 -43 2
-38 11 3 6 2 10 -4 10 -6 0 -25 14 -43 32 -18 18 -34 31 -35 30 -9 -7 -23 0
-18 8 3 6 -3 10 -15 10 -12 0 -18 5 -15 10 3 6 0 10 -9 10 -8 0 -16 4 -18 9
-1 5 -10 11 -18 13 -8 2 -22 11 -31 20 -9 10 -19 15 -23 11 -3 -3 -6 1 -6 10
0 10 -8 17 -19 17 -11 0 -33 12 -49 28 -46 42 -59 51 -66 45 -3 -4 -6 1 -6 10
0 9 -3 16 -7 16 -18 -3 -33 1 -30 9 1 4 -2 8 -7 9 -5 1 -12 5 -15 10 -3 4 -15
15 -25 23 -18 13 -19 13 -12 0 5 -8 -8 4 -29 28 -21 23 -46 42 -54 42 -9 0
-24 9 -34 20 -17 20 -43 28 -32 10z"/>
<path d="M7590 7505 c-10 -12 -9 -16 5 -21 13 -5 14 -9 3 -15 -11 -7 -10 -11
2 -19 13 -9 13 -10 0 -10 -12 0 -13 -2 -1 -9 11 -7 11 -9 0 -14 -12 -4 -11 -7
1 -16 13 -9 12 -11 -4 -11 -19 0 -19 0 -1 -14 16 -12 17 -16 6 -30 -11 -13
-11 -16 0 -16 12 0 12 -2 0 -9 -9 -6 -10 -11 -3 -15 15 -9 3 -37 -12 -31 -6 3
-3 0 6 -7 15 -11 15 -13 0 -25 -9 -7 -12 -12 -7 -11 6 2 10 -1 10 -7 0 -5 -4
-9 -9 -7 -5 2 -3 -4 4 -13 20 -24 21 -57 1 -50 -12 5 -12 2 2 -13 19 -21 22
-32 6 -32 -5 0 -7 5 -3 12 4 7 3 8 -4 4 -11 -7 -6 -36 7 -36 4 0 8 -7 8 -15 0
-11 -4 -12 -14 -4 -10 9 -9 2 3 -26 14 -35 14 -37 -2 -31 -16 6 -16 4 2 -15
10 -12 14 -19 8 -16 -7 4 -11 -3 -11 -18 0 -16 4 -22 11 -18 6 4 5 0 -2 -9
-10 -13 -10 -17 0 -21 8 -3 5 -6 -6 -6 -19 -1 -19 -1 -1 -15 16 -12 17 -16 6
-30 -11 -13 -11 -16 0 -16 12 0 12 -2 0 -9 -9 -6 -10 -11 -3 -15 15 -9 3 -37
-12 -30 -6 3 -3 -1 6 -8 15 -13 15 -15 0 -26 -9 -6 -12 -11 -5 -9 6 1 11 -2
11 -8 0 -5 -5 -9 -11 -7 -6 2 -4 -4 3 -13 20 -24 21 -57 1 -50 -12 5 -12 2 2
-13 19 -21 22 -32 6 -32 -5 0 -7 5 -3 12 4 7 3 8 -4 4 -11 -7 -6 -36 7 -36 4
0 8 -7 8 -15 0 -11 -4 -12 -14 -4 -10 9 -9 2 3 -26 14 -35 14 -37 -2 -31 -16
6 -16 4 2 -15 10 -12 14 -19 8 -16 -7 4 -11 -3 -11 -18 0 -16 4 -22 11 -18 6
4 5 0 -2 -9 -10 -13 -10 -17 0 -21 8 -3 5 -6 -6 -6 -19 -1 -19 -1 -1 -15 16
-12 17 -16 6 -30 -11 -13 -11 -16 0 -16 12 0 12 -2 0 -9 -9 -6 -10 -11 -3 -15
15 -9 3 -37 -12 -30 -6 3 -3 -1 6 -8 15 -13 15 -15 0 -26 -9 -6 -12 -11 -7 -9
6 1 10 -2 10 -8 0 -5 -4 -9 -9 -7 -5 2 -3 -4 4 -13 20 -24 21 -57 1 -50 -12 5
-12 2 2 -13 19 -21 22 -32 6 -32 -5 0 -7 5 -3 12 4 7 3 8 -4 4 -11 -7 -6 -36
7 -36 4 0 8 -7 8 -15 0 -11 -4 -12 -14 -4 -10 9 -9 2 3 -26 14 -35 14 -37 -2
-31 -16 6 -16 4 2 -15 10 -12 14 -19 8 -16 -7 4 -11 -3 -11 -18 0 -16 4 -22
11 -18 6 4 5 0 -2 -9 -10 -13 -10 -17 0 -21 8 -3 5 -6 -6 -6 -19 -1 -19 -1 -1
-15 16 -12 17 -16 6 -30 -11 -13 -11 -16 0 -16 12 0 12 -2 0 -9 -9 -6 -10 -11
-3 -15 15 -9 3 -37 -12 -30 -6 3 -3 -1 6 -8 15 -13 15 -15 0 -26 -9 -6 -12
-11 -7 -9 6 1 10 -2 10 -8 0 -5 -4 -9 -9 -7 -5 2 -3 -4 4 -13 20 -24 21 -57 1
-50 -12 5 -12 2 2 -13 19 -21 22 -32 6 -32 -5 0 -7 5 -3 12 4 7 3 8 -4 4 -11
-7 -6 -36 7 -36 4 0 8 -7 8 -15 0 -11 -4 -12 -14 -4 -10 9 -9 2 3 -26 14 -35
14 -37 -2 -31 -16 6 -16 4 2 -15 10 -12 14 -19 8 -16 -7 4 -11 -3 -11 -18 0
-16 4 -22 11 -18 6 4 5 0 -2 -9 -10 -13 -10 -17 0 -21 8 -3 5 -6 -6 -6 -19 -1
-19 -1 -1 -15 16 -12 17 -16 6 -30 -11 -13 -11 -16 0 -16 12 0 12 -2 0 -9 -9
-6 -10 -11 -3 -15 15 -9 3 -37 -12 -30 -6 3 -3 -1 6 -8 15 -13 15 -15 0 -26
-9 -6 -12 -11 -7 -9 6 1 10 -2 10 -8 0 -5 -4 -9 -9 -7 -5 2 -3 -4 4 -13 20
-24 21 -57 1 -50 -12 5 -12 2 2 -13 19 -21 22 -32 6 -32 -5 0 -7 5 -3 12 4 7
3 8 -4 4 -11 -7 -6 -36 7 -36 4 0 8 -7 8 -15 0 -12 -3 -12 -16 -2 -13 10 -13
8 1 -14 12 -20 14 -29 5 -38 -8 -8 -7 -11 3 -11 12 0 13 -2 1 -9 -9 -6 -10
-11 -3 -15 15 -9 3 -37 -12 -30 -6 3 -3 -1 6 -8 15 -13 15 -15 0 -26 -9 -6
-12 -11 -7 -9 6 1 10 -2 10 -8 0 -5 -4 -9 -9 -7 -5 2 -3 -4 4 -13 20 -24 21
-57 1 -50 -12 5 -12 2 2 -13 19 -21 22 -32 6 -32 -5 0 -7 5 -3 12 4 7 3 8 -4
4 -11 -7 -6 -36 7 -36 4 0 8 -7 8 -15 0 -11 -4 -12 -14 -4 -10 9 -9 2 3 -26
14 -35 14 -37 -2 -31 -16 6 -16 4 2 -15 10 -12 14 -19 8 -16 -7 4 -11 -3 -11
-18 0 -16 4 -22 11 -18 6 4 5 0 -2 -9 -10 -13 -10 -17 0 -21 8 -3 5 -6 -6 -6
-19 -1 -19 -1 -1 -15 16 -12 17 -16 6 -30 -11 -13 -11 -16 0 -16 12 0 12 -2 0
-9 -9 -6 -10 -11 -3 -15 15 -9 3 -37 -12 -30 -6 3 -3 -1 6 -8 15 -13 15 -15 0
-26 -9 -6 -12 -11 -7 -9 6 1 10 -2 10 -8 0 -5 -4 -9 -9 -7 -5 2 -3 -4 4 -13
20 -24 21 -57 1 -50 -12 5 -12 2 2 -13 19 -21 22 -32 6 -32 -5 0 -7 5 -3 12 4
7 3 8 -4 4 -11 -7 -6 -36 7 -36 4 0 8 -7 8 -15 0 -11 -4 -12 -14 -4 -10 9 -9
2 3 -26 14 -35 14 -37 -2 -31 -16 6 -16 4 2 -15 10 -12 14 -19 8 -16 -7 4 -11
-3 -11 -18 0 -16 4 -22 11 -18 6 4 5 0 -2 -9 -10 -13 -10 -17 0 -21 8 -3 5 -6
-6 -6 -19 -1 -19 -1 -1 -15 16 -12 17 -16 6 -30 -11 -13 -11 -16 0 -16 12 0
12 -2 0 -9 -9 -6 -10 -11 -3 -15 15 -9 3 -37 -12 -30 -6 3 -3 -1 6 -8 15 -13
15 -15 0 -26 -9 -6 -12 -11 -7 -9 6 1 10 -2 10 -8 0 -5 -4 -9 -9 -7 -5 2 -3
-4 4 -13 20 -24 21 -57 1 -50 -12 5 -12 2 2 -13 19 -21 22 -32 6 -32 -5 0 -7
5 -3 12 4 7 3 8 -4 4 -11 -7 -6 -36 7 -36 4 0 8 -7 8 -15 0 -11 -4 -12 -14 -4
-10 9 -9 2 3 -26 14 -35 14 -37 -2 -31 -16 6 -16 4 2 -15 10 -12 14 -19 8 -16
-7 4 -11 -3 -11 -18 0 -16 4 -22 11 -18 6 4 5 0 -2 -9 -10 -13 -10 -17 0 -21
8 -3 5 -6 -6 -6 -19 -1 -19 -1 -1 -15 16 -12 17 -16 6 -30 -11 -13 -11 -16 0
-16 12 0 12 -2 0 -9 -9 -6 -10 -11 -3 -15 15 -9 3 -37 -12 -30 -6 3 -3 -1 6
-8 15 -13 15 -15 0 -26 -9 -6 -12 -11 -7 -9 6 1 10 -2 10 -8 0 -5 -4 -9 -9 -7
-5 2 -3 -4 4 -13 20 -24 21 -57 1 -50 -12 5 -12 2 2 -13 19 -21 22 -32 6 -32
-5 0 -7 5 -3 12 4 7 3 8 -4 4 -11 -7 -6 -36 7 -36 4 0 8 -7 8 -15 0 -11 -4
-12 -14 -4 -10 9 -9 2 3 -26 14 -35 14 -37 -2 -31 -16 6 -16 4 2 -15 10 -12
14 -19 8 -16 -7 4 -11 -3 -11 -18 0 -16 4 -22 11 -18 6 4 5 0 -2 -9 -10 -13
-10 -17 0 -21 8 -3 5 -6 -6 -6 -19 -1 -19 -1 -1 -15 16 -12 17 -16 6 -30 -11
-13 -11 -16 0 -16 12 0 12 -2 0 -9 -9 -6 -10 -11 -3 -15 15 -9 3 -37 -12 -30
-6 3 -3 -1 6 -8 15 -13 15 -15 0 -26 -9 -6 -12 -11 -7 -9 6 1 10 -2 10 -8 0
-5 -4 -9 -9 -7 -5 2 -3 -4 4 -13 20 -24 21 -57 1 -50 -12 5 -12 2 2 -13 19
-21 22 -32 6 -32 -5 0 -7 5 -3 12 4 7 3 8 -4 4 -11 -7 -6 -36 7 -36 4 0 8 -7
8 -15 0 -11 -4 -12 -14 -4 -10 9 -9 2 3 -26 14 -35 14 -37 -2 -31 -16 6 -16 4
2 -15 10 -12 14 -19 8 -16 -7 4 -11 -3 -11 -18 0 -16 4 -22 11 -18 6 4 5 0 -2
-9 -10 -13 -10 -17 0 -21 8 -3 5 -6 -6 -6 -19 -1 -19 -1 -1 -15 16 -12 17 -16
6 -30 -11 -13 -11 -16 0 -16 12 0 12 -2 0 -9 -9 -6 -10 -11 -3 -15 15 -9 3
-37 -12 -30 -6 3 -3 -1 6 -8 15 -13 15 -15 0 -26 -9 -6 -12 -11 -7 -9 6 1 10
-2 10 -8 0 -5 -3 -9 -7 -8 -13 5 -9 -4 8 -21 10 -10 11 -16 3 -16 -8 0 -8 -5
2 -17 11 -13 11 -15 1 -9 -10 6 -13 2 -10 -15 2 -17 -2 -24 -15 -24 -10 0 -21
-6 -26 -13 -4 -7 -12 -12 -17 -11 -21 4 -35 -2 -29 -11 6 -9 -17 -15 -40 -10
-5 1 -7 -1 -3 -5 10 -10 -15 -33 -29 -28 -7 3 -16 -2 -19 -11 -3 -9 -10 -16
-16 -16 -5 0 -6 6 -3 13 4 6 -5 0 -18 -15 -14 -15 -28 -24 -32 -20 -3 4 -11
-1 -16 -10 -5 -10 -16 -15 -23 -12 -7 3 -16 -2 -19 -10 -4 -9 -16 -16 -27 -16
-11 0 -19 -3 -19 -7 3 -20 -2 -24 -16 -13 -15 12 -16 11 -19 -12 0 -6 -9 -12
-19 -14 -10 -1 -27 -10 -36 -18 -10 -9 -23 -16 -29 -16 -7 0 -12 -3 -12 -8 0
-4 -10 -12 -22 -17 -13 -6 -22 -17 -20 -25 3 -11 0 -11 -12 -1 -11 10 -17 8
-28 -8 -8 -12 -18 -18 -21 -15 -3 3 -19 -3 -35 -15 -34 -24 -47 -27 -36 -9 4
7 -7 -2 -26 -19 -18 -18 -42 -35 -52 -39 -10 -3 -16 -9 -13 -13 2 -5 -8 -7
-24 -6 -23 2 -28 -1 -23 -13 3 -10 1 -13 -6 -8 -7 4 -12 2 -12 -4 0 -6 -4 -9
-9 -6 -5 3 -12 -1 -15 -10 -3 -8 -10 -13 -16 -9 -5 3 -17 -3 -26 -14 -9 -10
-22 -17 -29 -15 -7 3 -15 -2 -18 -10 -4 -9 -13 -13 -22 -10 -11 5 -14 2 -9
-10 4 -9 3 -16 -2 -14 -15 4 -54 -13 -54 -23 0 -5 -9 -9 -19 -9 -11 0 -21 -5
-23 -11 -2 -5 -12 -11 -21 -13 -10 -1 -23 -9 -28 -17 -5 -8 -9 -9 -9 -4 0 6
-7 2 -14 -8 -8 -10 -23 -19 -35 -20 -11 -1 -23 -7 -26 -15 -3 -8 -12 -11 -21
-8 -8 3 -12 2 -9 -4 3 -6 1 -10 -5 -10 -6 0 -9 -4 -6 -9 3 -4 -6 -7 -19 -5
-15 1 -29 -4 -35 -14 -5 -10 -10 -13 -10 -8 0 5 -8 0 -17 -10 -10 -10 -25 -20
-33 -22 -8 -2 -17 -8 -18 -13 -2 -5 -8 -7 -13 -3 -5 3 -9 0 -9 -6 0 -6 -4 -9
-9 -5 -5 3 -17 -5 -25 -17 -9 -13 -16 -17 -16 -9 0 9 -6 7 -19 -7 -10 -12 -21
-19 -24 -15 -4 3 -9 -2 -13 -11 -3 -9 -10 -13 -15 -10 -5 3 -9 1 -9 -5 0 -6
-7 -8 -15 -5 -8 4 -15 1 -15 -5 0 -6 -7 -11 -15 -11 -7 0 -18 -7 -23 -16 -5
-9 -12 -15 -15 -15 -22 3 -29 -1 -24 -13 4 -9 -2 -12 -18 -10 -13 1 -26 -4
-29 -13 -3 -8 -10 -11 -16 -8 -5 3 -10 1 -10 -5 0 -6 -4 -8 -10 -5 -5 3 -10 0
-10 -8 0 -9 -9 -13 -25 -12 -14 2 -23 0 -21 -4 5 -8 -59 -45 -69 -40 -4 2 -13
-7 -20 -21 -9 -15 -15 -19 -15 -10 0 12 -2 12 -10 -2 -6 -9 -26 -22 -45 -28
-19 -6 -35 -15 -35 -20 0 -4 -18 -15 -40 -24 -22 -9 -40 -21 -40 -28 0 -10 -3
-9 -9 1 -7 11 -10 9 -16 -8 -3 -12 -10 -19 -15 -16 -5 3 -19 -5 -31 -17 -12
-13 -18 -17 -14 -9 5 9 -1 7 -19 -4 -14 -10 -26 -22 -26 -27 0 -6 -5 -6 -14 1
-10 9 -15 8 -20 -4 -3 -8 -15 -15 -26 -15 -11 0 -20 -4 -20 -8 0 -5 -14 -19
-31 -31 -18 -13 -29 -19 -25 -12 4 7 2 9 -8 5 -8 -3 -17 -12 -20 -20 -3 -8
-12 -14 -21 -14 -9 0 -26 -9 -37 -20 -12 -11 -27 -19 -32 -17 -12 4 -47 -24
-41 -33 2 -3 -5 -7 -16 -7 -10 -1 -19 2 -19 8 0 5 -6 9 -13 9 -7 0 -19 9 -27
19 -7 11 -17 18 -21 15 -4 -2 -13 1 -21 8 -23 22 -75 48 -82 41 -3 -3 -6 1 -6
11 0 9 -4 15 -10 11 -5 -3 -19 4 -30 15 -11 11 -25 18 -30 15 -4 -3 -15 1 -23
10 -8 8 -21 16 -28 17 -8 2 -22 12 -31 22 -10 11 -18 14 -18 7 0 -7 -5 -9 -10
-6 -6 4 -8 11 -5 16 4 5 -3 9 -15 9 -11 0 -23 7 -26 15 -4 8 -14 15 -24 15
-10 0 -20 4 -22 9 -1 5 -12 11 -23 13 -11 1 -32 15 -48 30 -16 15 -35 24 -43
21 -9 -3 -14 0 -12 6 2 7 -15 18 -37 26 -22 8 -45 22 -52 31 -6 9 -16 13 -22
9 -6 -3 -11 1 -11 10 0 9 -4 13 -10 10 -5 -3 -10 -1 -10 5 0 6 -4 9 -9 5 -5
-3 -17 3 -27 12 -10 10 -19 17 -21 16 -10 -9 -23 -1 -17 9 4 7 4 10 -1 6 -4
-4 -14 -3 -22 3 -7 6 -13 8 -13 4 0 -5 -8 1 -17 11 -10 10 -25 20 -33 22 -8 2
-16 8 -18 13 -2 5 -10 9 -18 9 -8 0 -14 5 -14 12 0 6 -3 8 -7 5 -3 -4 -12 -2
-20 4 -7 6 -13 8 -13 5 0 -4 -12 5 -27 19 -15 14 -31 26 -35 26 -5 1 -13 2
-19 3 -6 0 -17 10 -25 20 -8 11 -14 14 -14 8 0 -8 -9 -5 -22 7 -11 11 -25 18
-30 15 -5 -3 -7 -1 -6 4 2 6 -1 11 -7 12 -5 1 -22 11 -37 21 -14 10 -33 19
-42 19 -9 0 -16 5 -16 10 0 6 -7 10 -15 10 -8 0 -15 5 -15 11 0 5 -5 7 -10 4
-5 -3 -10 -1 -10 5 0 6 -5 8 -10 5 -5 -3 -10 -1 -10 4 0 6 -6 11 -13 11 -7 0
-23 9 -35 20 -12 11 -28 20 -37 20 -8 0 -15 6 -15 13 0 8 -10 13 -22 13 -16
-1 -22 4 -20 14 2 8 0 12 -4 7 -4 -4 -17 1 -28 10 -16 14 -18 14 -11 3 6 -9 2
-8 -7 3 -10 10 -22 16 -28 12 -5 -3 -10 1 -10 9 0 9 -8 16 -19 16 -11 0 -23 5
-26 10 -4 6 -11 8 -16 5 -5 -4 -9 1 -9 9 0 9 -7 16 -15 16 -8 0 -24 9 -35 20
-11 11 -26 17 -35 14 -8 -4 -17 1 -21 10 -3 9 -10 16 -16 16 -15 0 -38 27 -30
36 4 5 -1 2 -10 -5 -17 -13 -23 -8 -19 13 1 5 -7 6 -17 4 -12 -3 -25 2 -33 13
-7 10 -16 16 -20 13 -4 -2 -14 3 -22 11 -9 8 -22 15 -29 15 -20 1 -49 26 -40
35 4 5 2 5 -5 1 -6 -3 -14 -2 -18 4 -4 6 -11 8 -16 5 -5 -4 -9 -1 -9 4 0 6 -7
11 -15 11 -8 0 -15 5 -15 10 0 6 -9 10 -20 10 -11 0 -20 5 -20 10 0 6 -6 10
-14 10 -8 0 -17 7 -20 16 -3 8 -10 13 -14 10 -5 -3 -19 4 -30 14 -12 11 -25
20 -29 19 -21 -4 -33 2 -33 17 0 8 -4 13 -9 10 -5 -3 -14 1 -21 9 -7 8 -16 12
-21 9 -5 -3 -9 -1 -9 3 0 5 -23 19 -50 32 -28 13 -50 28 -50 32 0 5 -9 9 -19
9 -11 0 -27 7 -35 16 -9 8 -16 12 -16 8 0 -4 -6 1 -14 12 -10 12 -11 23 -5 31
7 7 6 13 0 17 -6 4 -7 15 -1 30 4 12 4 29 0 36 -5 8 -4 22 1 32 7 13 6 18 -2
18 -8 0 -8 4 1 15 10 12 10 15 0 15 -10 0 -10 3 -1 14 9 11 9 15 -1 19 -10 4
-10 6 1 6 11 1 11 4 1 16 -10 12 -10 15 0 15 9 0 10 3 1 13 -6 8 -8 16 -5 19
9 9 10 129 1 135 -4 3 -3 11 4 19 9 11 9 14 -1 14 -10 0 -10 3 0 15 10 12 10
15 0 15 -10 0 -10 3 0 15 8 9 8 15 2 15 -7 0 -8 10 -2 29 4 15 4 34 0 42 -5 7
-4 21 1 31 7 13 6 18 -2 18 -8 0 -8 4 1 15 10 12 10 15 0 15 -10 0 -10 3 -1
14 9 11 9 15 -1 19 -10 4 -10 6 1 6 11 1 11 4 1 16 -10 12 -10 15 0 15 9 0 10
3 1 13 -6 8 -8 16 -5 19 9 9 10 129 1 135 -4 3 -3 11 4 19 9 11 9 14 -1 14
-10 0 -10 3 0 15 10 12 10 15 0 15 -10 0 -10 3 0 15 8 9 8 15 2 15 -7 0 -8 10
-2 29 4 15 4 34 0 42 -5 7 -4 21 1 31 7 13 6 18 -2 18 -8 0 -8 4 1 15 10 12
10 15 0 15 -10 0 -10 3 -1 14 9 11 9 15 -1 19 -10 4 -10 6 1 6 11 1 11 4 1 16
-10 12 -10 15 0 15 9 0 10 3 1 13 -6 8 -8 16 -5 19 9 9 10 129 1 135 -4 3 -3
11 4 19 9 11 9 14 -1 14 -10 0 -10 3 0 15 10 12 10 15 0 15 -10 0 -10 3 0 15
8 9 8 15 2 15 -7 0 -8 10 -2 29 4 15 4 34 0 42 -5 7 -4 21 1 31 7 13 6 18 -2
18 -8 0 -8 4 1 15 10 12 10 15 0 15 -10 0 -10 3 -1 14 9 11 9 15 -1 19 -10 4
-10 6 1 6 11 1 11 4 1 16 -10 12 -10 15 0 15 9 0 10 3 1 13 -6 8 -8 16 -5 19
9 9 10 129 1 135 -4 3 -3 11 4 19 9 11 9 14 -1 14 -10 0 -10 3 0 15 10 12 10
15 0 15 -10 0 -10 3 0 15 8 9 8 15 2 15 -7 0 -8 10 -2 29 4 15 4 34 0 42 -5 7
-4 21 1 31 7 13 6 18 -2 18 -8 0 -8 4 1 15 10 12 10 15 0 15 -10 0 -10 3 -1
14 9 11 9 15 -1 19 -10 4 -10 6 1 6 11 1 11 4 1 16 -10 12 -10 15 0 15 9 0 10
3 1 13 -6 8 -8 16 -5 19 9 9 10 129 1 135 -4 3 -3 11 4 19 9 11 9 14 -1 14
-10 0 -10 3 0 15 10 12 10 15 0 15 -10 0 -10 3 0 15 8 9 8 15 2 15 -7 0 -8 10
-2 29 4 15 4 34 0 42 -5 7 -4 21 1 31 7 13 6 18 -2 18 -8 0 -8 4 1 15 10 12
10 15 0 15 -10 0 -10 3 -1 14 9 11 9 15 -1 19 -10 4 -10 6 1 6 11 1 11 4 1 16
-10 12 -10 15 0 15 9 0 10 3 1 13 -6 8 -8 16 -5 19 9 9 10 129 1 135 -4 3 -3
11 4 19 9 11 9 14 -1 14 -10 0 -10 3 0 15 10 12 10 15 0 15 -10 0 -10 3 0 15
8 9 8 15 2 15 -7 0 -8 10 -2 29 4 15 4 34 0 42 -5 7 -4 21 1 31 7 13 6 18 -2
18 -8 0 -8 4 1 15 10 12 10 15 0 15 -10 0 -10 3 -1 14 9 11 9 15 -1 19 -10 4
-10 6 1 6 11 1 11 4 1 16 -10 12 -10 15 0 15 9 0 10 3 1 13 -6 8 -8 16 -5 19
9 9 10 129 1 135 -4 3 -3 11 4 19 9 11 9 14 -1 14 -10 0 -10 3 0 15 10 12 10
15 0 15 -10 0 -10 3 -1 14 9 11 8 17 -3 29 -8 8 -13 17 -10 20 3 3 -4 8 -15
12 -12 3 -21 12 -21 19 0 8 -10 13 -22 12 -14 -1 -22 4 -21 12 2 6 -1 12 -6
12 -6 0 -22 11 -37 25 -14 13 -30 22 -34 20 -4 -3 -11 2 -14 11 -3 8 -10 12
-16 9 -5 -3 -10 1 -10 10 0 9 -4 13 -10 10 -5 -3 -10 -2 -10 3 0 5 -11 15 -25
22 -13 7 -22 18 -18 23 3 6 1 7 -5 3 -6 -3 -16 0 -24 7 -7 7 -17 15 -23 16 -5
2 -9 7 -7 13 1 5 -2 7 -8 3 -5 -3 -10 0 -10 7 0 9 -3 9 -10 -2 -8 -13 -10 -13
-10 2 0 9 -9 19 -19 23 -11 3 -22 12 -25 20 -3 8 -13 15 -21 15 -10 0 -13 5
-9 12 4 6 3 8 -3 5 -12 -7 -66 27 -56 36 3 4 -1 7 -10 7 -10 0 -17 4 -17 9 0
5 -13 14 -30 21 -16 7 -30 17 -30 22 0 5 -4 6 -10 3 -5 -3 -10 1 -10 9 0 8 -9
18 -20 21 -11 4 -33 18 -50 31 -17 15 -35 22 -42 18 -7 -4 -10 -4 -6 1 5 5 -8
19 -27 32 -19 13 -35 28 -35 34 0 6 -4 8 -9 5 -5 -4 -11 -2 -13 3 -1 5 -12 11
-23 13 -11 1 -23 8 -27 13 -4 6 -8 -1013 -8 -2264 0 -1251 3 -2271 7 -2268 3
4 13 1 22 -7 9 -8 23 -16 31 -18 22 -5 39 -22 32 -33 -2 -5 1 -5 8 2 8 7 17 8
24 2 49 -42 61 -49 78 -49 10 0 17 -6 16 -12 -2 -7 3 -12 10 -10 8 1 27 -9 43
-22 16 -14 38 -27 49 -31 11 -3 20 -11 20 -16 0 -6 5 -7 10 -4 6 3 10 0 10 -7
0 -9 3 -9 10 2 5 8 10 10 10 4 0 -7 12 -19 26 -29 18 -12 24 -13 19 -4 -3 8 1
5 9 -5 9 -11 25 -20 36 -21 12 -1 28 -11 36 -23 8 -12 23 -22 33 -22 10 0 26
-10 35 -23 9 -12 14 -16 11 -9 -3 6 -1 12 4 12 6 0 11 -5 11 -11 0 -5 4 -8 8
-5 5 3 14 -4 22 -14 8 -10 17 -17 22 -14 4 3 8 0 8 -6 0 -7 7 -9 16 -6 11 4
18 -1 21 -14 6 -21 23 -28 23 -9 0 6 9 1 20 -12 10 -13 19 -20 20 -16 0 4 6 2
14 -5 8 -7 12 -16 9 -21 -2 -4 -1 -7 4 -6 23 4 43 -2 38 -12 -4 -6 -1 -9 6 -8
8 2 28 -4 45 -14 17 -9 35 -13 39 -9 5 4 5 1 1 -5 -4 -7 -2 -13 4 -13 6 0 9
-4 6 -9 -4 -5 2 -7 12 -4 11 2 26 -3 36 -12 9 -9 16 -13 17 -8 0 4 4 -2 9 -14
7 -16 14 -20 31 -16 17 5 21 3 17 -8 -4 -10 2 -15 20 -17 15 -1 30 -9 35 -17
4 -8 15 -15 23 -15 8 0 12 -4 9 -10 -3 -5 0 -7 8 -5 7 3 23 -3 36 -14 13 -11
30 -17 38 -14 11 4 14 2 9 -5 -4 -7 -1 -12 8 -12 9 0 16 -5 16 -11 0 -5 5 -7
10 -4 6 3 13 -1 16 -9 3 -9 10 -14 14 -11 4 3 11 -2 14 -11 4 -9 13 -14 21
-10 8 3 15 1 15 -4 0 -8 19 -17 45 -21 6 -1 15 -8 20 -16 6 -8 20 -15 33 -16
12 0 22 -7 22 -14 0 -7 7 -13 15 -13 8 0 15 -4 15 -10 0 -5 9 -10 20 -10 11 0
23 -7 26 -15 4 -8 11 -12 17 -8 5 3 15 0 21 -8 6 -8 28 -23 49 -34 20 -11 37
-23 37 -27 0 -5 9 -8 20 -8 10 0 29 -10 41 -22 12 -13 18 -16 14 -8 -5 8 3 5
17 -7 13 -13 30 -23 36 -23 7 0 12 -4 12 -10 0 -5 9 -10 20 -10 11 0 20 -4 20
-10 0 -5 7 -10 16 -10 9 0 25 -9 35 -21 21 -24 29 -25 40 -7 6 9 9 6 9 -11 0
-17 4 -22 16 -17 11 4 15 2 11 -7 -3 -8 4 -14 21 -15 14 -1 28 -6 31 -10 10
-13 66 -47 74 -44 4 1 7 -5 7 -14 0 -8 5 -12 10 -9 6 3 23 -3 39 -14 15 -11
31 -18 34 -14 4 3 9 -2 13 -11 3 -9 10 -13 15 -10 5 3 9 0 9 -5 0 -6 7 -11 15
-11 8 0 15 -4 15 -10 0 -5 6 -7 14 -4 7 3 16 -2 20 -11 3 -10 12 -15 21 -11 9
3 15 0 15 -9 0 -8 9 -15 19 -15 11 0 22 -4 25 -9 4 -5 26 -19 51 -31 25 -12
45 -26 45 -31 0 -5 9 -9 19 -9 11 0 21 -4 23 -9 2 -5 10 -11 18 -13 8 -2 23
-11 34 -20 11 -10 26 -18 33 -18 8 0 11 -5 7 -12 -5 -8 -2 -9 9 -5 9 3 20 0
24 -7 5 -8 17 -16 28 -18 21 -3 35 -12 65 -42 10 -10 23 -15 29 -12 5 4 16 -3
24 -15 11 -15 16 -17 20 -7 4 11 6 11 6 0 1 -7 6 -10 11 -7 6 4 9 1 8 -7 -2
-7 4 -12 14 -10 10 1 19 -6 23 -19 5 -16 9 -18 15 -9 6 10 15 6 34 -13 14 -14
26 -21 27 -14 0 7 5 1 11 -13 6 -14 12 -20 15 -13 2 7 11 9 19 6 7 -3 11 -9 8
-14 -3 -5 -2 -9 3 -10 31 -3 48 -10 55 -23 4 -8 24 -20 43 -26 21 -7 32 -16
29 -22 -4 -6 -2 -8 4 -4 6 3 13 2 17 -4 4 -6 10 -8 15 -5 4 3 11 -2 14 -11 3
-8 10 -12 16 -9 6 3 13 -1 16 -9 3 -9 10 -13 15 -10 5 3 9 0 9 -5 0 -6 9 -11
20 -11 11 0 20 -4 20 -10 0 -5 9 -10 20 -10 11 0 20 -7 20 -16 0 -8 5 -12 10
-9 6 3 10 0 10 -7 0 -8 3 -9 8 -3 10 14 32 17 32 4 0 -6 7 -3 16 5 8 9 20 16
25 16 6 0 8 4 5 9 -4 5 3 7 14 4 14 -4 20 0 20 11 0 10 4 14 10 11 11 -7 83
39 75 47 -3 3 5 5 17 4 13 -1 32 8 43 20 11 11 26 19 34 16 8 -3 11 0 7 7 -4
6 -1 11 8 11 9 0 16 5 16 10 0 6 9 10 20 10 11 0 20 5 20 11 0 5 5 7 10 4 6
-3 10 2 10 12 0 13 3 14 8 5 7 -9 13 -8 27 8 10 11 22 17 26 14 5 -3 9 3 9 12
0 10 3 15 6 11 4 -3 19 0 35 9 16 8 32 14 35 13 4 0 11 6 16 15 5 9 13 14 19
11 5 -4 9 -1 9 5 0 6 5 8 10 5 6 -3 10 -2 10 3 0 8 15 15 43 20 4 1 18 12 30
24 12 13 31 25 42 26 11 2 23 10 28 18 4 7 14 11 22 8 8 -4 18 1 21 10 3 9 13
16 21 16 8 0 11 5 8 10 -3 6 2 10 13 10 10 0 28 9 39 19 15 14 23 17 32 8 8
-8 11 -6 11 10 0 14 6 20 18 19 10 0 16 5 14 14 -2 8 0 12 4 8 4 -4 14 -2 22
5 13 10 14 9 7 -3 -4 -8 3 -5 17 8 13 12 27 19 31 16 4 -4 9 1 13 10 3 9 14
16 24 16 10 0 23 7 30 15 7 8 19 15 27 15 7 0 23 9 35 20 12 11 28 20 35 20 8
0 11 4 8 10 -4 6 1 7 11 3 13 -5 15 -3 9 8 -7 11 -5 11 10 -1 11 -9 16 -10 11
-2 -6 11 5 17 27 13 4 0 7 5 7 13 0 13 19 26 50 32 8 2 20 10 26 18 6 9 21 16
33 16 12 0 19 4 16 10 -3 6 0 10 9 10 8 0 16 5 18 12 4 10 23 17 55 20 7 1 11
6 10 12 -1 6 8 10 21 8 12 -2 22 0 21 5 -4 22 3 31 21 26 12 -3 20 0 20 8 0 7
3 10 6 6 4 -3 13 1 21 9 8 8 18 12 23 9 4 -3 11 2 14 11 3 8 11 12 16 9 6 -4
9 -1 8 5 -2 7 5 14 16 15 10 2 23 8 29 14 6 6 17 11 25 11 18 0 43 26 34 35
-4 5 -2 5 4 2 7 -4 17 0 24 9 7 8 19 13 27 10 7 -3 13 1 13 9 0 7 5 17 12 21
7 5 8 3 3 -6 -6 -10 -4 -12 9 -7 10 4 20 7 22 7 3 0 3 4 0 9 -3 5 6 12 20 15
18 5 24 11 20 23 -5 13 -4 14 8 4 10 -9 16 -9 21 -1 4 6 13 9 21 6 8 -3 11 0
8 9 -4 10 0 13 15 10 14 -2 21 1 21 11 0 8 9 14 20 14 10 0 29 10 41 23 12 12
18 16 14 9 -6 -11 -3 -12 14 -3 11 7 21 16 21 22 0 6 4 8 9 5 5 -3 11 1 15 9
3 8 15 15 26 15 11 0 23 6 26 14 3 8 12 12 20 9 7 -3 17 2 20 12 4 9 13 14 20
11 8 -3 13 0 11 7 -1 7 10 13 26 15 15 2 25 8 22 13 -4 5 -1 10 4 10 6 1 15 2
19 3 5 0 16 9 26 19 10 9 22 15 27 12 5 -4 9 1 9 10 0 9 4 14 9 10 5 -3 12 -1
16 5 4 6 11 8 16 5 5 -4 12 1 15 10 4 9 12 14 19 11 8 -3 16 2 19 10 3 8 14
14 25 14 11 0 21 5 23 11 2 5 12 11 22 13 10 1 24 10 31 19 7 9 15 14 18 10 4
-3 7 -1 7 6 0 7 5 9 10 6 6 -3 10 -1 10 4 0 6 7 11 15 11 9 0 18 6 21 14 3 8
11 13 17 10 7 -2 27 9 45 26 35 32 48 38 36 18 -6 -10 -5 -10 8 -1 8 7 19 9
23 5 5 -4 5 -2 1 5 -4 7 7 18 29 29 19 9 35 21 35 26 0 5 5 6 10 3 6 -3 10 -1
10 4 0 6 9 11 20 11 11 0 20 5 20 11 0 5 4 8 9 4 6 -3 14 2 19 11 5 9 11 15
13 14 9 -3 59 20 59 28 0 5 11 8 25 7 14 -2 23 0 21 4 -6 10 30 41 38 34 3 -4
6 -1 6 5 0 7 9 12 19 12 11 0 21 3 23 8 2 4 20 16 40 26 21 10 35 23 31 29 -3
6 -1 7 4 4 12 -8 73 20 73 33 0 5 6 7 14 4 9 -3 17 3 21 15 3 12 11 21 18 21
7 0 8 3 1 10 -6 6 -7 35 -4 70 3 35 2 64 -4 70 -7 7 -5 10 4 10 11 0 11 3 2
12 -14 14 -16 32 -2 23 5 -3 8 0 5 7 -11 31 -11 98 -1 98 6 0 4 5 -4 10 -13 8
-13 10 -1 10 12 0 12 3 3 12 -13 13 -17 32 -4 25 9 -6 7 97 -2 112 -4 6 -2 11
5 11 10 0 10 3 1 12 -14 14 -16 32 -2 23 5 -3 8 0 5 7 -11 31 -11 98 -1 98 6
0 4 5 -4 10 -13 8 -13 10 -1 10 12 0 12 3 3 12 -13 13 -17 32 -4 25 9 -6 7 97
-2 112 -4 6 -2 11 5 11 10 0 10 3 1 12 -14 14 -16 32 -2 23 5 -3 8 0 5 7 -11
31 -11 98 -1 98 6 0 4 5 -4 10 -13 8 -13 10 -1 10 12 0 12 3 3 12 -13 13 -17
32 -4 25 9 -6 7 97 -2 112 -4 6 -2 11 5 11 10 0 10 3 1 12 -14 14 -16 32 -3
24 5 -4 6 9 1 29 -5 24 -4 35 4 35 6 0 4 5 -4 10 -13 8 -13 10 -1 10 11 0 12
3 4 11 -6 6 -7 25 -3 49 4 24 3 43 -3 49 -8 8 -7 11 3 11 11 0 11 3 2 12 -13
13 -17 32 -4 25 8 -6 7 62 -2 99 -5 18 -3 24 5 19 8 -6 8 -2 0 14 -8 14 -8 21
-1 21 7 0 8 6 0 19 -13 25 -13 34 1 25 8 -4 8 0 0 15 -8 15 -9 21 -1 21 6 0 8
5 5 11 -12 18 -13 59 -1 59 6 0 4 5 -4 10 -13 8 -13 10 -1 10 11 0 12 3 4 11
-6 6 -7 25 -3 49 4 24 3 43 -3 49 -8 8 -7 11 3 11 11 0 11 3 2 12 -13 13 -17
32 -4 25 8 -6 7 62 -2 99 -5 18 -3 24 5 19 8 -6 8 -2 0 14 -8 14 -8 21 -1 21
7 0 8 6 0 19 -13 25 -13 34 1 25 8 -4 8 0 0 15 -8 15 -9 21 -1 21 6 0 8 5 5
11 -12 18 -13 59 -1 59 6 0 4 5 -4 10 -13 8 -13 10 -1 10 11 0 12 3 4 11 -6 6
-7 25 -3 49 4 24 3 43 -3 49 -8 8 -7 11 3 11 11 0 11 3 2 12 -13 13 -17 32 -4
25 4 -3 6 14 5 36 -2 23 -4 66 -6 95 -2 31 1 52 8 52 5 0 3 5 -5 10 -13 8 -13
10 0 10 11 0 11 3 2 12 -13 13 -17 32 -4 25 9 -6 7 97 -2 112 -4 6 -2 11 5 11
10 0 10 3 1 12 -14 14 -16 32 -2 23 5 -3 8 0 5 7 -11 31 -11 98 -1 98 6 0 4 5
-4 10 -13 8 -13 10 0 10 11 0 11 3 2 12 -13 13 -17 32 -4 25 9 -6 7 97 -2 112
-4 6 -2 11 5 11 10 0 10 3 1 12 -14 14 -16 32 -2 23 5 -3 8 0 5 7 -11 31 -11
98 -1 98 6 0 4 5 -4 10 -13 8 -13 10 0 10 11 0 11 3 2 12 -13 13 -17 32 -4 25
9 -6 7 97 -2 112 -4 6 -2 11 5 11 10 0 10 3 1 12 -14 14 -16 32 -2 23 5 -3 8
0 5 7 -11 31 -11 98 -1 98 6 0 4 5 -4 10 -13 8 -13 10 0 10 11 0 11 3 2 12
-13 13 -17 32 -4 25 9 -6 7 97 -2 112 -4 6 -2 11 5 11 10 0 10 3 1 12 -14 14
-16 32 -3 24 5 -4 6 9 1 29 -5 24 -4 35 4 35 6 0 4 5 -4 10 -13 8 -13 10 0 10
10 0 11 3 3 11 -6 6 -7 25 -3 49 4 24 3 43 -3 49 -8 8 -7 11 3 11 11 0 11 3 2
12 -13 13 -17 32 -4 25 8 -6 7 62 -2 99 -5 18 -3 24 5 19 8 -6 8 -2 0 14 -8
14 -8 21 -1 21 7 0 8 6 0 19 -13 25 -13 34 1 25 8 -4 8 0 0 15 -8 15 -9 21 -1
21 6 0 8 5 5 11 -12 18 -13 59 -1 59 6 0 4 5 -4 10 -13 8 -13 10 0 10 10 0 11
3 3 11 -6 6 -7 25 -3 49 4 24 3 43 -3 49 -8 8 -7 11 3 11 11 0 11 3 2 12 -13
13 -17 32 -4 25 8 -6 7 62 -2 99 -5 18 -3 24 5 19 8 -6 8 -2 0 14 -8 14 -8 21
-1 21 7 0 8 6 0 19 -13 25 -13 34 1 25 8 -4 8 0 0 15 -8 15 -9 21 -1 21 6 0 8
5 5 11 -12 18 -13 59 -1 59 6 0 4 5 -4 10 -12 8 -12 10 -1 10 10 0 11 3 2 13
-6 8 -8 16 -6 19 3 3 5 25 5 49 -1 84 1 80 -40 83 -8 1 -15 7 -15 14 0 6 -4
12 -10 13 -5 0 -14 7 -18 15 -4 8 -15 14 -22 14 -8 0 -15 5 -15 10 0 6 -7 10
-15 10 -7 0 -19 8 -24 18 -6 9 -11 13 -11 8 0 -5 -9 1 -19 13 -11 12 -23 23
-28 24 -4 1 -7 6 -5 11 2 5 -4 6 -13 2 -10 -4 -19 2 -25 17 -5 12 -9 18 -9 14
-1 -4 -7 -2 -15 5 -8 7 -12 16 -9 20 2 4 -3 5 -12 2 -9 -4 -26 4 -42 20 -14
14 -32 26 -39 26 -8 0 -14 5 -14 10 0 6 -7 10 -16 10 -8 0 -13 4 -9 9 5 9 -32
27 -47 23 -5 -1 -8 6 -8 15 0 9 -3 14 -6 11 -3 -3 -17 5 -31 18 -14 13 -29 21
-34 18 -5 -3 -9 1 -9 9 0 8 -13 20 -30 26 -16 5 -30 14 -30 18 0 5 -16 17 -35
27 -19 10 -32 23 -28 29 3 6 1 7 -5 3 -6 -4 -19 2 -29 14 -10 11 -23 20 -30
20 -7 0 -13 7 -13 16 0 10 -6 14 -15 10 -9 -3 -15 0 -15 9 0 9 -6 12 -17 8
-10 -4 -14 -2 -10 4 4 6 0 14 -9 17 -21 8 -20 8 -34 -9z"/>
<path d="M5080 6083 c0 -8 -4 -11 -10 -8 -5 3 -10 1 -10 -5 0 -6 -5 -8 -10 -5
-6 3 -13 -1 -16 -10 -4 -8 -11 -15 -18 -14 -18 3 -46 -12 -40 -22 3 -5 2 -9
-3 -8 -20 3 -34 -2 -28 -11 4 -6 3 -10 -2 -9 -24 4 -43 -3 -43 -17 0 -8 -4
-12 -10 -9 -5 3 -30 -7 -54 -24 -24 -17 -46 -27 -50 -24 -3 4 -6 0 -6 -8 0 -8
-10 -16 -22 -16 -13 -1 -28 -9 -34 -17 -6 -9 -14 -13 -18 -9 -3 4 -13 -3 -22
-15 -8 -12 -21 -19 -29 -16 -8 4 -15 1 -15 -6 0 -6 -4 -8 -10 -5 -5 3 -10 1
-10 -5 0 -6 -4 -9 -9 -6 -5 3 -12 -1 -15 -10 -3 -9 -13 -14 -21 -11 -8 4 -16
-2 -20 -13 -4 -12 -13 -17 -25 -15 -10 2 -24 -3 -31 -11 -6 -8 -27 -22 -45
-30 -19 -9 -34 -22 -34 -30 0 -7 -6 -11 -14 -8 -7 3 -22 -3 -31 -13 -10 -10
-21 -17 -24 -15 -3 1 -14 -5 -23 -13 -10 -8 -18 -11 -18 -7 0 4 -7 -1 -15 -12
-7 -10 -18 -15 -24 -11 -6 3 -11 1 -11 -5 0 -6 -4 -9 -9 -6 -5 3 -12 -1 -15
-10 -3 -8 -10 -13 -15 -9 -5 3 -16 -4 -24 -16 -9 -12 -18 -16 -21 -10 -8 13
-36 3 -33 -12 1 -7 -6 -11 -17 -9 -11 2 -15 -1 -11 -7 3 -6 1 -11 -6 -11 -7 0
-24 -10 -37 -22 -14 -13 -22 -17 -18 -11 4 8 -5 6 -23 -4 -16 -10 -27 -22 -24
-27 3 -5 1 -6 -4 -3 -6 4 -22 -3 -37 -14 -14 -11 -26 -17 -26 -12 0 4 -4 2 -9
-6 -5 -8 -18 -16 -28 -17 -9 -2 -19 -8 -21 -13 -2 -6 -12 -11 -23 -11 -11 0
-22 -7 -25 -15 -4 -8 -13 -15 -21 -15 -8 0 -11 -5 -7 -11 4 -7 -1 -10 -12 -7
-10 2 -27 -5 -36 -14 -10 -10 -24 -15 -34 -11 -10 4 -15 2 -11 -3 3 -5 -8 -17
-24 -27 -18 -10 -28 -12 -24 -4 4 6 0 4 -8 -5 -8 -10 -19 -18 -26 -18 -6 0
-11 -4 -11 -10 0 -5 -6 -10 -13 -10 -7 0 -22 -8 -33 -18 -10 -10 -27 -16 -37
-14 -10 2 -16 -2 -15 -10 2 -8 -4 -12 -16 -10 -10 2 -15 -1 -12 -6 3 -6 -8
-15 -24 -21 -17 -5 -30 -15 -30 -20 0 -6 -6 -8 -14 -5 -7 3 -16 -2 -19 -10 -3
-8 -14 -13 -23 -12 -10 2 -29 -10 -42 -25 -13 -16 -26 -28 -30 -27 -16 4 -52
-14 -46 -23 3 -6 0 -10 -7 -8 -30 4 -35 -2 -33 -36 2 -26 0 -34 -9 -29 -9 5
-9 3 1 -7 6 -7 12 -24 12 -37 0 -16 -4 -21 -12 -16 -9 5 -9 2 1 -9 10 -13 11
-20 2 -30 -6 -8 -8 -17 -4 -21 11 -11 12 -95 2 -102 -5 -3 -6 -11 -2 -17 11
-18 13 -96 2 -103 -5 -3 -6 -11 -2 -17 11 -18 13 -96 2 -103 -5 -3 -6 -11 -2
-17 10 -16 11 -737 1 -744 -5 -2 -5 -10 -1 -16 11 -18 13 -96 2 -103 -5 -3 -6
-11 -2 -17 11 -18 13 -96 2 -103 -5 -3 -6 -11 -2 -17 11 -18 13 -96 2 -103 -5
-3 -6 -11 -2 -17 11 -18 13 -96 2 -103 -5 -3 -6 -11 -2 -17 11 -17 12 -137 1
-143 -4 -3 -5 -11 -1 -17 11 -18 12 -90 1 -104 -5 -7 -5 -13 0 -17 6 -3 9 -29
7 -56 -2 -33 2 -56 11 -65 11 -10 11 -15 1 -19 -6 -4 -2 -4 11 -2 12 2 22 0
22 -6 0 -5 5 -6 10 -3 6 3 10 -1 10 -10 0 -9 4 -14 9 -11 5 3 21 -4 37 -17 16
-12 31 -22 34 -22 3 0 4 -3 3 -7 -2 -5 8 -8 21 -8 13 0 27 -7 30 -16 3 -8 10
-12 16 -9 13 8 41 -20 32 -31 -4 -5 0 -3 8 3 11 8 18 8 27 -2 6 -7 9 -16 5
-20 -4 -4 3 -4 16 -1 15 5 24 3 28 -8 3 -9 12 -16 19 -16 7 0 15 -7 19 -15 3
-9 12 -12 22 -8 12 4 15 3 10 -5 -6 -11 12 -17 37 -13 4 0 7 -4 7 -9 0 -6 5
-10 10 -10 6 0 19 -9 30 -20 12 -12 25 -18 30 -15 5 3 11 1 15 -5 4 -6 11 -8
16 -5 5 3 6 -1 3 -9 -4 -10 0 -14 13 -12 10 2 26 -6 36 -17 9 -11 17 -17 17
-12 0 4 7 2 15 -5 8 -7 12 -17 8 -24 -4 -6 1 -5 10 3 14 11 18 11 23 -3 4 -10
13 -15 20 -12 8 3 14 -1 14 -9 0 -13 18 -20 43 -16 4 0 7 -4 7 -9 0 -6 7 -10
15 -10 8 0 15 -5 15 -11 0 -5 4 -8 9 -4 5 3 16 -2 24 -10 38 -37 61 0 46 73
-4 19 -3 32 3 32 6 0 6 5 -1 14 -9 11 -9 15 1 19 11 4 10 6 0 6 -7 1 -10 6 -6
12 8 14 11 109 3 109 -10 0 -5 34 6 43 6 4 5 10 -4 16 -9 6 -10 10 -2 16 9 5
9 10 1 20 -8 10 -7 14 2 18 11 4 10 6 0 6 -8 1 -10 6 -6 13 12 19 12 48 0 48
-7 0 -7 3 -1 8 6 4 10 30 10 57 0 28 -4 53 -10 57 -6 5 -6 8 1 8 10 0 10 52 0
102 -2 9 1 19 8 22 7 3 7 5 -2 5 -8 1 -10 6 -6 13 12 19 12 48 0 48 -7 0 -7 3
-1 8 11 8 14 132 4 132 -10 0 -5 34 6 43 6 4 5 10 -4 16 -9 6 -10 10 -2 16 9
5 9 10 1 20 -8 10 -7 14 2 18 11 4 10 6 0 6 -8 1 -10 6 -6 13 12 19 12 48 0
48 -7 0 -7 3 -1 8 6 4 10 30 10 57 0 28 -4 53 -10 57 -6 5 -6 8 1 8 10 0 10
52 0 102 -2 9 1 19 8 22 7 3 7 5 -2 5 -8 1 -10 6 -5 14 11 17 10 41 -2 49 -7
5 -7 8 0 8 9 0 10 104 1 142 -2 9 1 19 8 22 7 3 7 5 -2 5 -8 1 -10 6 -5 14 11
17 10 41 -2 49 -7 5 -7 8 0 8 10 0 10 92 1 117 -3 7 0 13 6 13 7 0 7 4 -1 14
-9 11 -9 15 1 19 11 4 10 6 0 6 -8 1 -10 6 -5 14 11 17 10 41 -2 49 -7 5 -7 8
0 8 10 0 10 92 1 117 -3 7 0 13 6 13 7 0 7 4 -1 14 -9 11 -9 15 1 19 11 4 10
6 0 6 -7 1 -10 6 -6 13 4 6 8 30 8 52 1 32 5 41 18 41 10 0 24 9 31 19 8 11
19 16 26 12 6 -4 14 0 17 8 3 9 12 16 19 16 7 0 15 5 17 12 2 6 15 13 28 15
14 2 29 9 35 15 7 8 6 9 -4 3 -9 -5 -12 -4 -7 3 3 6 15 9 25 7 11 -2 22 3 25
11 3 9 10 12 16 9 5 -3 10 -1 10 4 0 6 6 10 13 8 6 -1 11 4 9 11 -2 9 4 12 17
7 11 -3 23 0 27 6 5 8 3 10 -7 4 -8 -5 -10 -4 -6 0 4 5 15 10 24 11 9 2 20 9
25 17 5 9 16 13 28 10 14 -4 20 -1 18 8 -2 7 6 15 17 17 11 2 27 10 36 18 9 8
19 11 24 7 4 -5 5 -3 2 3 -7 13 20 29 42 25 7 -1 10 2 7 8 -3 5 7 12 24 16 16
4 30 13 30 20 0 9 6 12 15 9 10 -4 15 0 15 11 0 12 6 16 20 12 13 -3 25 2 33
14 8 10 17 16 21 11 4 -4 14 2 22 12 8 11 14 16 14 11 0 -5 6 -1 13 9 11 15
28 22 59 25 4 1 4 9 1 19 -6 15 -5 15 10 3 11 -8 17 -9 17 -2 0 6 11 13 25 17
14 3 25 10 25 16 0 5 5 6 10 3 6 -3 10 -1 10 5 0 6 5 8 10 5 6 -3 10 -1 10 6
0 7 3 10 6 6 3 -3 17 5 31 19 13 13 29 24 36 25 7 0 23 2 37 3 15 2 32 -5 43
-17 9 -11 17 -16 17 -11 0 5 7 1 14 -9 8 -10 17 -18 20 -18 25 3 36 -1 36 -13
0 -8 8 -13 17 -12 10 2 24 -3 31 -11 8 -7 18 -11 23 -8 5 4 9 -1 9 -9 0 -9 3
-16 8 -17 30 -3 46 -10 61 -28 20 -23 36 -28 26 -8 -4 6 1 3 9 -7 9 -11 16
-16 16 -10 1 5 7 -2 14 -15 9 -16 16 -20 20 -12 6 9 13 6 26 -9 11 -12 24 -19
29 -15 6 3 11 -1 11 -10 0 -9 4 -14 9 -10 5 3 15 0 23 -7 7 -7 30 -21 51 -30
20 -10 37 -23 37 -28 0 -6 5 -8 10 -5 6 3 10 1 10 -4 0 -6 7 -11 16 -11 8 0
22 -7 31 -15 8 -8 19 -13 24 -10 5 4 9 1 9 -4 0 -6 7 -11 15 -11 8 0 15 -4 15
-10 0 -5 7 -10 15 -10 8 0 15 -4 15 -10 0 -5 9 -10 21 -10 13 0 18 -4 13 -11
-5 -8 1 -10 19 -7 18 4 24 1 20 -9 -3 -8 2 -13 15 -13 11 0 23 -7 26 -16 4 -9
13 -14 21 -10 8 3 15 1 15 -5 0 -6 7 -9 15 -5 8 3 14 1 12 -5 -1 -5 12 -17 28
-27 17 -9 33 -21 36 -25 3 -5 10 -9 15 -10 5 -1 8 -6 6 -10 -1 -4 7 -3 18 3
17 9 20 8 20 -10 0 -11 5 -20 11 -20 11 0 6 -50 -7 -72 -5 -9 -2 -8 11 2 17
14 18 14 6 -7 -6 -13 -9 -23 -5 -23 3 0 1 -7 -6 -16 -8 -8 -9 -14 -4 -13 21 4
24 -2 9 -17 -15 -15 -15 -18 1 -35 16 -17 16 -19 0 -25 -15 -6 -15 -8 1 -21
10 -8 13 -12 7 -9 -7 3 -15 -1 -18 -10 -3 -8 -2 -12 3 -9 6 3 10 -12 9 -35 0
-27 -4 -38 -12 -33 -7 4 -6 1 1 -8 10 -12 10 -18 0 -29 -10 -10 -9 -12 6 -7
13 5 16 3 11 -5 -5 -7 -7 -25 -6 -41 2 -20 -1 -26 -9 -21 -8 5 -9 3 -3 -7 13
-21 14 -42 3 -55 -7 -8 -6 -15 2 -20 8 -5 9 -3 4 6 -6 9 -4 11 5 5 10 -6 10
-10 -3 -20 -14 -10 -14 -12 1 -23 9 -7 12 -10 6 -7 -7 2 -15 -2 -18 -11 -3 -8
-2 -12 3 -9 6 3 10 -12 9 -35 0 -26 -4 -38 -12 -33 -6 3 -6 0 2 -8 15 -16 16
-33 0 -23 -7 5 -8 3 -2 -7 13 -21 14 -42 3 -55 -7 -8 -6 -15 2 -20 8 -5 9 -3
4 6 -6 9 -4 11 5 5 10 -6 10 -10 -3 -20 -14 -10 -14 -12 1 -23 9 -7 12 -10 6
-7 -7 2 -15 -2 -18 -11 -3 -8 -2 -12 3 -9 6 3 10 -12 9 -35 0 -25 -4 -37 -11
-33 -6 4 -7 1 -1 -8 14 -23 16 -59 2 -59 -6 0 -3 -7 8 -16 10 -8 13 -13 7 -9
-8 4 -13 0 -13 -10 0 -10 5 -14 13 -10 6 4 4 0 -5 -7 -15 -13 -15 -15 0 -26 9
-7 12 -10 6 -7 -7 2 -15 -2 -18 -11 -3 -8 -2 -12 3 -9 6 3 10 -12 9 -35 0 -25
-4 -37 -11 -33 -6 4 -7 1 -1 -8 14 -23 16 -59 2 -59 -6 0 -3 -7 8 -16 10 -8
13 -13 7 -9 -8 4 -13 0 -13 -10 0 -10 5 -14 13 -10 6 4 4 0 -5 -7 -15 -13 -15
-15 0 -26 9 -7 12 -10 6 -7 -7 2 -15 -2 -18 -11 -3 -8 -2 -12 4 -9 6 3 10 2
10 -4 0 -5 -5 -13 -10 -16 -7 -4 -8 -11 -2 -18 13 -16 12 -69 -2 -86 -8 -11
-8 -13 0 -8 7 4 15 0 18 -9 3 -8 2 -12 -3 -9 -5 3 -12 1 -16 -5 -3 -5 -1 -10
6 -10 9 0 9 -3 0 -14 -8 -9 -8 -16 -2 -20 13 -8 11 -67 -3 -85 -8 -11 -8 -13
0 -8 7 4 15 0 18 -9 3 -8 2 -12 -3 -9 -5 3 -12 1 -16 -5 -3 -5 -1 -10 4 -10 6
0 11 -5 11 -11 0 -5 -5 -7 -12 -3 -7 5 -8 3 -2 -7 13 -21 14 -42 3 -55 -7 -8
-6 -15 2 -20 8 -5 9 -3 4 6 -6 9 -4 11 5 5 10 -6 10 -10 -3 -20 -14 -10 -14
-12 1 -23 9 -7 12 -10 6 -7 -7 2 -15 -2 -18 -11 -3 -8 -2 -12 3 -9 6 3 10 -12
9 -35 0 -25 -4 -37 -11 -33 -6 4 -7 1 -1 -8 14 -23 16 -59 2 -59 -6 0 -3 -7 8
-16 10 -8 13 -13 7 -9 -8 4 -13 0 -13 -10 0 -10 5 -14 13 -10 6 4 4 0 -5 -7
-15 -13 -15 -15 0 -26 9 -7 12 -10 6 -7 -7 2 -15 -2 -18 -11 -3 -8 -2 -12 3
-9 6 3 10 -12 9 -35 0 -26 -4 -38 -12 -33 -6 3 -6 0 2 -8 15 -16 16 -33 0 -23
-7 5 -8 3 -2 -7 4 -8 9 -20 10 -27 4 -22 11 -24 27 -7 9 8 22 15 31 15 8 0 20
10 27 21 7 14 14 18 18 10 5 -8 13 -5 28 8 11 10 29 21 39 23 10 2 18 9 17 15
-1 6 6 9 17 6 11 -3 20 0 20 6 0 6 5 11 10 11 6 0 20 9 32 20 12 10 24 17 28
15 4 -3 13 2 20 10 7 8 19 15 26 15 8 0 14 5 14 11 0 5 4 8 9 4 5 -3 17 5 25
17 9 12 16 19 16 14 0 -5 6 -3 14 3 11 9 15 9 19 -1 4 -9 6 -8 6 3 1 9 12 20
26 23 14 4 23 11 20 16 -3 6 3 10 14 10 11 0 24 7 29 17 6 10 16 14 26 10 9
-4 15 -3 12 1 -3 4 4 14 16 21 16 10 19 10 13 -1 -3 -7 2 -4 12 8 10 11 31 24
46 28 15 3 27 11 27 17 0 6 5 7 10 4 6 -3 10 -1 10 5 0 6 4 9 8 6 5 -3 14 4
22 14 8 10 17 17 22 14 4 -3 8 0 8 7 0 7 3 9 6 6 9 -8 46 12 40 22 -3 4 5 7
16 7 20 -1 22 5 22 59 1 33 -3 63 -9 67 -7 5 -7 8 0 8 7 0 10 33 9 90 -1 61 1
88 9 83 6 -4 7 -1 1 8 -12 20 -13 880 -1 872 6 -4 7 -1 1 8 -13 20 -14 240 -1
232 6 -4 7 -1 1 8 -13 20 -14 270 -1 262 6 -4 7 -1 1 8 -13 21 -14 130 -1 122
6 -4 7 -1 1 8 -13 20 -14 240 -1 232 6 -4 7 -1 1 8 -5 8 -10 37 -10 64 -2 73
-3 77 -14 70 -5 -3 -10 -2 -10 4 0 5 -10 13 -22 17 -13 3 -32 14 -42 23 -16
13 -18 13 -12 1 4 -8 -1 -5 -12 7 -11 12 -26 23 -33 25 -19 4 -38 22 -32 30 2
4 -2 5 -10 3 -16 -7 -63 16 -62 30 0 6 -12 11 -27 13 -15 2 -33 11 -40 20 -13
16 -30 24 -55 25 -7 0 -12 3 -11 6 2 24 -4 32 -22 26 -15 -5 -20 -2 -20 10 0
10 -6 15 -13 12 -7 -3 -24 4 -38 14 -13 10 -30 19 -36 19 -7 0 -13 5 -13 10 0
6 -9 10 -20 10 -11 0 -20 5 -20 10 0 6 -7 10 -15 10 -8 0 -15 6 -15 13 0 8 -4
7 -10 -3 -8 -12 -10 -11 -10 7 0 16 -4 21 -15 17 -9 -4 -15 0 -15 8 0 8 -12
15 -27 16 -16 1 -29 7 -31 12 -2 6 -10 10 -17 10 -7 0 -16 7 -19 16 -3 8 -10
12 -16 9 -5 -3 -10 -1 -10 6 0 7 -3 9 -7 6 -3 -4 -12 1 -20 11 -8 9 -11 10 -7
3 7 -14 -47 20 -74 46 -8 7 -17 11 -21 9 -4 -3 -13 3 -20 13 -8 11 -21 16 -32
14 -13 -4 -19 0 -19 11 0 11 -5 14 -12 10 -6 -4 -16 0 -23 9 -7 10 -24 18 -38
19 -14 1 -23 6 -21 10 5 8 -11 12 -30 9 -5 -1 -6 5 -3 14 5 10 0 15 -14 15
-11 0 -22 6 -25 14 -3 8 -12 12 -20 9 -8 -3 -14 1 -14 8 0 11 -3 11 -10 -1 -8
-13 -10 -13 -10 2 0 9 -5 20 -12 24 -7 5 -9 2 -4 -7 4 -8 1 -6 -7 4 -8 10 -24
19 -35 20 -11 0 -19 4 -16 9 6 10 -27 26 -48 23 -10 -2 -18 1 -18 6 0 6 -11
21 -24 35 -17 19 -26 23 -31 14 -6 -9 -4 -11 5 -5 9 6 11 4 5 -5 -6 -10 -11
-9 -22 6 -8 10 -18 20 -23 20 -6 1 -13 3 -17 4 -5 1 -12 1 -18 0 -5 -1 -7 2
-3 6 10 9 -50 46 -63 39 -5 -4 -9 1 -9 9 0 14 -18 21 -42 17 -5 0 -8 4 -8 9 0
6 -11 15 -25 22 -13 6 -22 15 -18 21 3 6 1 7 -5 4 -14 -9 -43 3 -36 14 3 5 -1
6 -9 3 -8 -3 -18 0 -22 5 -3 6 -11 9 -16 6 -5 -3 -6 2 -2 11 4 12 3 15 -5 10
-7 -4 -12 -2 -12 3 0 6 -3 10 -7 10 -22 -4 -33 2 -27 14 4 6 4 9 -1 5 -4 -4
-15 -2 -23 5 -13 9 -14 9 -8 0 13 -22 -4 -14 -30 14 -28 30 -94 41 -94 16z"/>
</g>
</svg>
